<mxfile host="65bd71144e" pages="2">
    <diagram name="Page-1" id="2cc2dc42-3aac-f2a9-1cec-7a8b7cbee084">
        <mxGraphModel dx="676" dy="599" grid="1" gridSize="10" guides="1" tooltips="1" connect="1" arrows="1" fold="1" page="1" pageScale="1" pageWidth="850" pageHeight="1100" background="none" math="0" shadow="0">
            <root>
                <mxCell id="0"/>
                <mxCell id="1" parent="0"/>
                <mxCell id="7026571954dc6520-1" value="" style="strokeWidth=1;shadow=0;dashed=0;align=center;html=1;shape=mxgraph.mockup.containers.browserWindow;rSize=0;strokeColor=#b85450;mainText=,;recursiveResize=0;rounded=0;labelBackgroundColor=none;fontFamily=Verdana;fontSize=12;fillColor=#f8cecc;" parent="1" vertex="1">
                    <mxGeometry x="425" y="140" width="1050" height="820" as="geometry"/>
                </mxCell>
                <mxCell id="7026571954dc6520-2" value="Open Sea Pixie" style="strokeWidth=1;shadow=0;dashed=0;align=center;html=1;shape=mxgraph.mockup.containers.anchor;fontSize=17;fontColor=#666666;align=left;" parent="7026571954dc6520-1" vertex="1">
                    <mxGeometry x="50" y="20" width="110" height="18" as="geometry"/>
                </mxCell>
                <mxCell id="7026571954dc6520-3" value="https://www.Open Sea Pixie.com" style="strokeWidth=1;shadow=0;dashed=0;align=center;html=1;shape=mxgraph.mockup.containers.anchor;rSize=0;fontSize=17;fontColor=#666666;align=left;" parent="7026571954dc6520-1" vertex="1">
                    <mxGeometry x="130" y="60" width="250" height="26" as="geometry"/>
                </mxCell>
                <mxCell id="7026571954dc6520-4" value="Open Sea Pixie" style="text;html=1;points=[];align=left;verticalAlign=top;spacingTop=-4;fontSize=30;fontFamily=Verdana" parent="7026571954dc6520-1" vertex="1">
                    <mxGeometry x="380" y="130" width="340" height="50" as="geometry"/>
                </mxCell>
                <mxCell id="7026571954dc6520-6" value="Page title, may add additional styling." style="text;html=1;points=[];align=left;verticalAlign=top;spacingTop=-4;fontSize=15;fontFamily=Verdana" parent="7026571954dc6520-1" vertex="1">
                    <mxGeometry x="10" y="180" width="285" height="30" as="geometry"/>
                </mxCell>
                <mxCell id="7026571954dc6520-8" value="Search Results" style="text;html=1;points=[];align=left;verticalAlign=top;spacingTop=-4;fontSize=15;fontFamily=Verdana" parent="7026571954dc6520-1" vertex="1">
                    <mxGeometry x="50" y="440" width="170" height="30" as="geometry"/>
                </mxCell>
                <mxCell id="7026571954dc6520-9" value="Some default text to fill some space, and&amp;nbsp;&lt;span&gt;something more so there is more text&lt;/span&gt;" style="text;html=1;points=[];align=left;verticalAlign=top;spacingTop=-4;fontSize=12;fontFamily=Verdana;whiteSpace=wrap;" parent="7026571954dc6520-1" vertex="1">
                    <mxGeometry x="10" y="470" width="240" height="40" as="geometry"/>
                </mxCell>
                <mxCell id="7026571954dc6520-10" value="Web View layout" style="text;html=1;points=[];align=left;verticalAlign=top;spacingTop=-4;fontSize=15;fontFamily=Verdana" parent="7026571954dc6520-1" vertex="1">
                    <mxGeometry x="870" y="120" width="170" height="30" as="geometry"/>
                </mxCell>
                <mxCell id="7026571954dc6520-12" value="Input Search bar" style="text;html=1;points=[];align=left;verticalAlign=top;spacingTop=-4;fontSize=15;fontFamily=Verdana" parent="7026571954dc6520-1" vertex="1">
                    <mxGeometry x="835" y="230" width="170" height="30" as="geometry"/>
                </mxCell>
                <mxCell id="7026571954dc6520-14" value="Search" style="strokeWidth=1;shadow=0;dashed=0;align=center;html=1;shape=mxgraph.mockup.forms.searchBox;strokeColor=#999999;mainText=;strokeColor2=#008cff;fontColor=#666666;fontSize=17;align=left;spacingLeft=3;rounded=0;labelBackgroundColor=none;" parent="7026571954dc6520-1" vertex="1">
                    <mxGeometry x="395" y="280" width="220" height="30" as="geometry"/>
                </mxCell>
                <mxCell id="7026571954dc6520-15" value="" style="verticalLabelPosition=bottom;shadow=0;dashed=0;align=center;html=1;verticalAlign=top;strokeWidth=1;shape=mxgraph.mockup.markup.line;strokeColor=#999999;rounded=0;labelBackgroundColor=none;fillColor=#ffffff;fontFamily=Verdana;fontSize=12;fontColor=#000000;" parent="7026571954dc6520-1" vertex="1">
                    <mxGeometry y="310" width="1050" height="20" as="geometry"/>
                </mxCell>
                <mxCell id="7026571954dc6520-16" value="Required Giphy logo for use of Giphy API." style="text;html=1;points=[];align=left;verticalAlign=top;spacingTop=-4;fontSize=15;fontFamily=Verdana" parent="7026571954dc6520-1" vertex="1">
                    <mxGeometry x="40" y="770" width="320" height="30" as="geometry"/>
                </mxCell>
                <mxCell id="7026571954dc6520-18" value="Submit" style="strokeWidth=1;shadow=0;dashed=0;align=center;html=1;shape=mxgraph.mockup.buttons.button;strokeColor=#666666;mainText=;buttonStyle=round;fontSize=17;fontStyle=0;fillColor=none;whiteSpace=wrap;rounded=0;labelBackgroundColor=none;" parent="7026571954dc6520-1" vertex="1">
                    <mxGeometry x="280" y="330" width="190" height="30" as="geometry"/>
                </mxCell>
                <mxCell id="7026571954dc6520-19" value="Clear" style="strokeWidth=1;shadow=0;dashed=0;align=center;html=1;shape=mxgraph.mockup.buttons.button;strokeColor=#666666;mainText=;buttonStyle=round;fontSize=17;fontStyle=0;fillColor=none;whiteSpace=wrap;rounded=0;labelBackgroundColor=none;" parent="7026571954dc6520-1" vertex="1">
                    <mxGeometry x="480" y="330" width="190" height="30" as="geometry"/>
                </mxCell>
                <mxCell id="7026571954dc6520-20" value="The search bar will take any phrase or keyword and return results that match that description." style="text;html=1;points=[];align=left;verticalAlign=top;spacingTop=-4;fontSize=12;fontFamily=Verdana;whiteSpace=wrap;" parent="7026571954dc6520-1" vertex="1">
                    <mxGeometry x="800" y="260" width="240" height="40" as="geometry"/>
                </mxCell>
                <mxCell id="7026571954dc6520-21" value="" style="verticalLabelPosition=bottom;shadow=0;dashed=0;align=center;html=1;verticalAlign=top;strokeWidth=1;shape=mxgraph.mockup.markup.line;strokeColor=#999999;rounded=0;labelBackgroundColor=none;fillColor=#ffffff;fontFamily=Verdana;fontSize=12;fontColor=#000000;" parent="7026571954dc6520-1" vertex="1">
                    <mxGeometry y="580" width="1050" height="20" as="geometry"/>
                </mxCell>
                <mxCell id="7026571954dc6520-31" value="Powered by Giphy&amp;nbsp;" style="text;html=1;points=[];align=left;verticalAlign=top;spacingTop=-4;fontSize=15;fontFamily=Verdana" parent="7026571954dc6520-1" vertex="1">
                    <mxGeometry x="430" y="780" width="150" height="30" as="geometry"/>
                </mxCell>
                <mxCell id="7026571954dc6520-34" value="Submit and clear buttons will be present but search can also be executed by hitting the enter key." style="text;html=1;points=[];align=left;verticalAlign=top;spacingTop=-4;fontSize=12;fontFamily=Verdana;whiteSpace=wrap;" parent="7026571954dc6520-1" vertex="1">
                    <mxGeometry x="780" y="380" width="210" height="50" as="geometry"/>
                </mxCell>
                <mxCell id="rI6GKvq5I3B2qordJVXW-1" value="" style="verticalLabelPosition=bottom;shadow=0;dashed=0;align=center;html=1;verticalAlign=top;strokeWidth=1;shape=mxgraph.mockup.graphics.simpleIcon;strokeColor=#999999;fillColor=#ffffff;rounded=0;labelBackgroundColor=none;fontFamily=Verdana;fontSize=12;fontColor=#000000;" parent="7026571954dc6520-1" vertex="1">
                    <mxGeometry x="430" y="405" width="130" height="140" as="geometry"/>
                </mxCell>
                <mxCell id="rI6GKvq5I3B2qordJVXW-2" value="" style="verticalLabelPosition=bottom;shadow=0;dashed=0;align=center;html=1;verticalAlign=top;strokeWidth=1;shape=mxgraph.mockup.graphics.simpleIcon;strokeColor=#999999;fillColor=#ffffff;rounded=0;labelBackgroundColor=none;fontFamily=Verdana;fontSize=12;fontColor=#000000;" parent="7026571954dc6520-1" vertex="1">
                    <mxGeometry x="590" y="405" width="130" height="140" as="geometry"/>
                </mxCell>
                <mxCell id="rI6GKvq5I3B2qordJVXW-3" value="" style="verticalLabelPosition=bottom;shadow=0;dashed=0;align=center;html=1;verticalAlign=top;strokeWidth=1;shape=mxgraph.mockup.graphics.simpleIcon;strokeColor=#999999;fillColor=#ffffff;rounded=0;labelBackgroundColor=none;fontFamily=Verdana;fontSize=12;fontColor=#000000;" parent="7026571954dc6520-1" vertex="1">
                    <mxGeometry x="265" y="590" width="130" height="140" as="geometry"/>
                </mxCell>
                <mxCell id="rI6GKvq5I3B2qordJVXW-4" value="" style="verticalLabelPosition=bottom;shadow=0;dashed=0;align=center;html=1;verticalAlign=top;strokeWidth=1;shape=mxgraph.mockup.graphics.simpleIcon;strokeColor=#999999;fillColor=#ffffff;rounded=0;labelBackgroundColor=none;fontFamily=Verdana;fontSize=12;fontColor=#000000;" parent="7026571954dc6520-1" vertex="1">
                    <mxGeometry x="430" y="590" width="130" height="140" as="geometry"/>
                </mxCell>
                <mxCell id="rI6GKvq5I3B2qordJVXW-5" value="" style="verticalLabelPosition=bottom;shadow=0;dashed=0;align=center;html=1;verticalAlign=top;strokeWidth=1;shape=mxgraph.mockup.graphics.simpleIcon;strokeColor=#999999;fillColor=#ffffff;rounded=0;labelBackgroundColor=none;fontFamily=Verdana;fontSize=12;fontColor=#000000;" parent="7026571954dc6520-1" vertex="1">
                    <mxGeometry x="590" y="590" width="130" height="140" as="geometry"/>
                </mxCell>
                <mxCell id="rI6GKvq5I3B2qordJVXW-6" value="" style="verticalLabelPosition=bottom;shadow=0;dashed=0;align=center;html=1;verticalAlign=top;strokeWidth=1;shape=mxgraph.mockup.graphics.simpleIcon;strokeColor=#999999;fillColor=#ffffff;rounded=0;labelBackgroundColor=none;fontFamily=Verdana;fontSize=12;fontColor=#000000;" parent="7026571954dc6520-1" vertex="1">
                    <mxGeometry x="265" y="405" width="130" height="140" as="geometry"/>
                </mxCell>
                <mxCell id="ktP-L_x0YuZgnsRPzv4j-2" value="Buttons" style="text;html=1;points=[];align=left;verticalAlign=top;spacingTop=-4;fontSize=15;fontFamily=Verdana" parent="7026571954dc6520-1" vertex="1">
                    <mxGeometry x="835" y="350" width="170" height="30" as="geometry"/>
                </mxCell>
                <mxCell id="ktP-L_x0YuZgnsRPzv4j-3" value="Page Title" style="text;html=1;points=[];align=left;verticalAlign=top;spacingTop=-4;fontSize=15;fontFamily=Verdana" parent="7026571954dc6520-1" vertex="1">
                    <mxGeometry x="67.5" y="150" width="170" height="30" as="geometry"/>
                </mxCell>
                <mxCell id="5_N6I8aTut4dveZcXY4V-2" value="&lt;span style=&quot;font-size: 14px; background-color: initial;&quot;&gt;&amp;nbsp;&lt;/span&gt;&lt;span style=&quot;font-size: medium;&quot;&gt;Gifs&amp;nbsp; &amp;nbsp;&amp;nbsp;&lt;/span&gt;&lt;span style=&quot;font-size: medium; background-color: initial;&quot;&gt;Stickers&amp;nbsp; &amp;nbsp;&amp;nbsp;&lt;/span&gt;&lt;span style=&quot;background-color: initial; font-size: medium;&quot;&gt;Create&amp;nbsp; &amp;nbsp;&amp;nbsp;&lt;/span&gt;&lt;span style=&quot;background-color: initial; font-size: medium;&quot;&gt;Help&lt;/span&gt;" style="text;strokeColor=none;fillColor=none;html=1;whiteSpace=wrap;verticalAlign=middle;overflow=hidden;" parent="7026571954dc6520-1" vertex="1">
                    <mxGeometry x="375" y="180" width="295" height="90" as="geometry"/>
                </mxCell>
                <mxCell id="5_N6I8aTut4dveZcXY4V-1" value="&lt;font style=&quot;font-size: 35px;&quot;&gt;Web Page Layout&lt;/font&gt;" style="text;html=1;align=center;verticalAlign=middle;whiteSpace=wrap;rounded=0;" parent="1" vertex="1">
                    <mxGeometry x="775" y="80" width="350" height="30" as="geometry"/>
                </mxCell>
            </root>
        </mxGraphModel>
    </diagram>
    <diagram id="TCXHxIq2zfF4kVTd6xvl" name="Page-2">
        <mxGraphModel dx="676" dy="599" grid="1" gridSize="10" guides="1" tooltips="1" connect="1" arrows="1" fold="1" page="1" pageScale="1" pageWidth="850" pageHeight="1100" math="0" shadow="0">
            <root>
                <mxCell id="0"/>
                <mxCell id="1" parent="0"/>
                <mxCell id="fwZu2a24P-UmbW1dsMMa-1" value="" style="html=1;verticalLabelPosition=bottom;labelBackgroundColor=#ffffff;verticalAlign=top;shadow=0;dashed=0;strokeWidth=1;shape=mxgraph.ios7.misc.iphone;strokeColor=#c0c0c0;" parent="1" vertex="1">
                    <mxGeometry x="320" y="90" width="200" height="400" as="geometry"/>
                </mxCell>
                <mxCell id="fwZu2a24P-UmbW1dsMMa-2" value="Open Sea Pixie" style="html=1;strokeWidth=1;shadow=0;dashed=0;shape=mxgraph.ios7ui.url;fillColor=#e0e0e0;strokeColor=#c0c0c0;buttonText=;strokeColor2=#222222;fontColor=#222222;fontSize=8;spacingTop=2;align=center;whiteSpace=wrap;" parent="1" vertex="1">
                    <mxGeometry x="337.5" y="170" width="165" height="20" as="geometry"/>
                </mxCell>
                <mxCell id="fwZu2a24P-UmbW1dsMMa-4" value="" style="html=1;shadow=0;dashed=0;shape=mxgraph.ios.iAppBar;strokeWidth=1;sketch=0;" parent="1" vertex="1">
                    <mxGeometry x="330" y="150" width="180" height="15" as="geometry"/>
                </mxCell>
                <mxCell id="fwZu2a24P-UmbW1dsMMa-5" value="CARRIER" style="html=1;shadow=0;dashed=0;shape=mxgraph.ios.anchor;align=left;fontSize=8;spacingLeft=18;" parent="fwZu2a24P-UmbW1dsMMa-4" vertex="1">
                    <mxGeometry y="2" width="51.42857142857144" height="13" as="geometry"/>
                </mxCell>
                <mxCell id="fwZu2a24P-UmbW1dsMMa-6" value="11:55PM" style="html=1;shadow=0;dashed=0;shape=mxgraph.ios.rect;fontSize=8;strokeColor=none;fillColor=none;" parent="fwZu2a24P-UmbW1dsMMa-4" vertex="1">
                    <mxGeometry x="61.71428571428572" y="2" width="51.42857142857144" height="13" as="geometry"/>
                </mxCell>
                <mxCell id="fwZu2a24P-UmbW1dsMMa-8" value="" style="verticalLabelPosition=bottom;verticalAlign=top;html=1;shadow=0;dashed=0;strokeWidth=1;shape=mxgraph.ios.iBgFlat;strokeColor=#b85450;fillColor=#f8cecc;" parent="1" vertex="1">
                    <mxGeometry x="330" y="190" width="180" height="240" as="geometry"/>
                </mxCell>
                <mxCell id="fwZu2a24P-UmbW1dsMMa-12" value="Gifs" style="strokeWidth=1;html=1;shadow=0;dashed=0;shape=mxgraph.ios.iButton;strokeColor=#444444;fontColor=#ffffff;buttonText=;fontSize=8;fillColor=#dddddd;fillColor2=#3D5565;whiteSpace=wrap;align=center;sketch=0;" parent="1" vertex="1">
                    <mxGeometry x="398.25" y="192.5" width="43.5" height="15" as="geometry"/>
                </mxCell>
                <mxCell id="fwZu2a24P-UmbW1dsMMa-13" value="Stickers" style="strokeWidth=1;html=1;shadow=0;dashed=0;shape=mxgraph.ios.iButton;strokeColor=#444444;fontColor=#ffffff;buttonText=;fontSize=8;fillColor=#dddddd;fillColor2=#3D5565;whiteSpace=wrap;align=center;sketch=0;" parent="1" vertex="1">
                    <mxGeometry x="398.25" y="215" width="43.5" height="15" as="geometry"/>
                </mxCell>
                <mxCell id="fwZu2a24P-UmbW1dsMMa-14" value="Help" style="strokeWidth=1;html=1;shadow=0;dashed=0;shape=mxgraph.ios.iButton;strokeColor=#444444;fontColor=#ffffff;buttonText=;fontSize=8;fillColor=#dddddd;fillColor2=#3D5565;whiteSpace=wrap;align=center;sketch=0;" parent="1" vertex="1">
                    <mxGeometry x="398.25" y="237.5" width="43.5" height="15" as="geometry"/>
                </mxCell>
                <mxCell id="fwZu2a24P-UmbW1dsMMa-15" value="" style="strokeWidth=1;html=1;shadow=0;dashed=0;shape=mxgraph.ios.iScreenNameBar;fillColor2=#000000;fillColor3=#ffffff;buttonText=;fontColor=#ffffff;fontSize=10;whiteSpace=wrap;align=center;sketch=0;" parent="1" vertex="1">
                    <mxGeometry x="340" y="260" width="160" height="15" as="geometry"/>
                </mxCell>
                <mxCell id="fwZu2a24P-UmbW1dsMMa-17" value="" style="shape=rect;fillColor=#e0e0e0;strokeColor=none;" parent="1" vertex="1">
                    <mxGeometry x="340" y="260" width="160" height="20" as="geometry"/>
                </mxCell>
                <mxCell id="fwZu2a24P-UmbW1dsMMa-18" value="" style="html=1;strokeWidth=1;shadow=0;dashed=0;shape=mxgraph.ios7ui.marginRect;rx=3;ry=3;rectMargin=5;strokeColor=none;" parent="fwZu2a24P-UmbW1dsMMa-17" vertex="1">
                    <mxGeometry x="9.75609756097561" width="150.2439024390244" height="20" as="geometry"/>
                </mxCell>
                <mxCell id="fwZu2a24P-UmbW1dsMMa-19" value="Search" style="shape=mxgraph.ios7.icons.looking_glass;strokeColor=#e0e0e0;fillColor=none;fontColor=#e0e0e0;labelPosition=right;verticalLabelPosition=middle;align=left;verticalAlign=middle;fontSize=6;fontStyle=0;spacingTop=2;sketch=0;html=1;" parent="fwZu2a24P-UmbW1dsMMa-17" vertex="1">
                    <mxGeometry x="0.5" y="0.5" width="6" height="6" relative="1" as="geometry">
                        <mxPoint x="-17" y="-3" as="offset"/>
                    </mxGeometry>
                </mxCell>
                <mxCell id="fwZu2a24P-UmbW1dsMMa-21" value="Powered by Giphy" style="strokeWidth=1;html=1;shadow=0;dashed=0;shape=mxgraph.ios.iTextInput;strokeColor=#444444;buttonText=;fontSize=8;whiteSpace=wrap;align=left;" parent="1" vertex="1">
                    <mxGeometry x="384.62" y="410" width="69" height="15" as="geometry"/>
                </mxCell>
                <mxCell id="fwZu2a24P-UmbW1dsMMa-22" value="" style="html=1;verticalLabelPosition=bottom;labelBackgroundColor=#ffffff;verticalAlign=top;shadow=0;dashed=0;strokeWidth=2;shape=mxgraph.ios7.misc.keyboard_(letters);sketch=0;" parent="1" vertex="1">
                    <mxGeometry x="590" y="230" width="175" height="120" as="geometry"/>
                </mxCell>
                <mxCell id="fwZu2a24P-UmbW1dsMMa-23" value="Page title" style="html=1;shadow=0;dashed=0;shape=mxgraph.ios.iURLBar;verticalAlign=top;fontSize=8;spacingTop=-5;align=center;sketch=0;whiteSpace=wrap;" parent="1" vertex="1">
                    <mxGeometry x="120" y="142.5" width="175" height="30" as="geometry"/>
                </mxCell>
                <mxCell id="fwZu2a24P-UmbW1dsMMa-24" value="https://www.openseapixie.io/" style="html=1;shadow=0;dashed=0;shape=mxgraph.ios.anchor;fontSize=8;spacingLeft=3;align=left;spacingTop=2;" parent="fwZu2a24P-UmbW1dsMMa-23" vertex="1">
                    <mxGeometry x="5" y="12" width="115" height="13" as="geometry"/>
                </mxCell>
                <mxCell id="fwZu2a24P-UmbW1dsMMa-25" value="Cancel" style="html=1;shadow=0;dashed=0;shape=mxgraph.ios.anchor;fontSize=8;fontColor=#ffffff;spacingTop=2;" parent="fwZu2a24P-UmbW1dsMMa-23" vertex="1">
                    <mxGeometry x="137" y="12" width="32" height="13" as="geometry"/>
                </mxCell>
                <mxCell id="fwZu2a24P-UmbW1dsMMa-26" value="Input bar&amp;nbsp; where user will enter keywords/ search terms." style="whiteSpace=wrap;html=1;rounded=1;arcSize=50;align=center;verticalAlign=middle;strokeWidth=1;autosize=1;spacing=4;treeFolding=1;treeMoving=1;newEdgeStyle={&quot;edgeStyle&quot;:&quot;entityRelationEdgeStyle&quot;,&quot;startArrow&quot;:&quot;none&quot;,&quot;endArrow&quot;:&quot;none&quot;,&quot;segment&quot;:10,&quot;curved&quot;:1,&quot;sourcePerimeterSpacing&quot;:0,&quot;targetPerimeterSpacing&quot;:0};" parent="1" vertex="1">
                    <mxGeometry x="590" y="170" width="150" height="60" as="geometry"/>
                </mxCell>
                <mxCell id="fwZu2a24P-UmbW1dsMMa-27" value="" style="edgeStyle=entityRelationEdgeStyle;startArrow=none;endArrow=none;segment=10;curved=1;sourcePerimeterSpacing=0;targetPerimeterSpacing=0;rounded=0;" parent="1" target="fwZu2a24P-UmbW1dsMMa-26" edge="1">
                    <mxGeometry relative="1" as="geometry">
                        <mxPoint x="490" y="272" as="sourcePoint"/>
                    </mxGeometry>
                </mxCell>
                <mxCell id="fwZu2a24P-UmbW1dsMMa-28" value="" style="strokeWidth=2;html=1;shape=mxgraph.flowchart.annotation_2;align=left;labelPosition=right;pointerEvents=1;" parent="1" vertex="1">
                    <mxGeometry x="348.25" y="190" width="50" height="70" as="geometry"/>
                </mxCell>
                <mxCell id="fwZu2a24P-UmbW1dsMMa-31" value="Menu items which link to other pages" style="ellipse;whiteSpace=wrap;html=1;align=center;newEdgeStyle={&quot;edgeStyle&quot;:&quot;entityRelationEdgeStyle&quot;,&quot;startArrow&quot;:&quot;none&quot;,&quot;endArrow&quot;:&quot;none&quot;,&quot;segment&quot;:10,&quot;curved&quot;:1,&quot;sourcePerimeterSpacing&quot;:0,&quot;targetPerimeterSpacing&quot;:0};treeFolding=1;treeMoving=1;direction=west;" parent="1" vertex="1">
                    <mxGeometry x="218.25" y="182.5" width="130" height="70" as="geometry"/>
                </mxCell>
                <mxCell id="fwZu2a24P-UmbW1dsMMa-35" value="Required logo displayed&amp;nbsp;" style="whiteSpace=wrap;html=1;rounded=1;arcSize=50;align=center;verticalAlign=middle;strokeWidth=1;autosize=1;spacing=4;treeFolding=1;treeMoving=1;newEdgeStyle={&quot;edgeStyle&quot;:&quot;entityRelationEdgeStyle&quot;,&quot;startArrow&quot;:&quot;none&quot;,&quot;endArrow&quot;:&quot;none&quot;,&quot;segment&quot;:10,&quot;curved&quot;:1,&quot;sourcePerimeterSpacing&quot;:0,&quot;targetPerimeterSpacing&quot;:0};" parent="1" vertex="1">
                    <mxGeometry x="170" y="440" width="135" height="30" as="geometry"/>
                </mxCell>
                <mxCell id="fwZu2a24P-UmbW1dsMMa-36" value="" style="edgeStyle=entityRelationEdgeStyle;startArrow=none;endArrow=none;segment=10;curved=1;sourcePerimeterSpacing=0;targetPerimeterSpacing=0;rounded=0;exitX=0.012;exitY=0.522;exitDx=0;exitDy=0;exitPerimeter=0;" parent="1" source="fwZu2a24P-UmbW1dsMMa-21" target="fwZu2a24P-UmbW1dsMMa-35" edge="1">
                    <mxGeometry relative="1" as="geometry">
                        <mxPoint x="150" y="432" as="sourcePoint"/>
                    </mxGeometry>
                </mxCell>
                <mxCell id="fwZu2a24P-UmbW1dsMMa-37" value="Search results displayed in css grid format." style="whiteSpace=wrap;html=1;rounded=1;arcSize=50;align=center;verticalAlign=middle;strokeWidth=1;autosize=1;spacing=4;treeFolding=1;treeMoving=1;newEdgeStyle={&quot;edgeStyle&quot;:&quot;entityRelationEdgeStyle&quot;,&quot;startArrow&quot;:&quot;none&quot;,&quot;endArrow&quot;:&quot;none&quot;,&quot;segment&quot;:10,&quot;curved&quot;:1,&quot;sourcePerimeterSpacing&quot;:0,&quot;targetPerimeterSpacing&quot;:0};" parent="1" vertex="1">
                    <mxGeometry x="160" y="300" width="140" height="50" as="geometry"/>
                </mxCell>
                <mxCell id="fwZu2a24P-UmbW1dsMMa-38" value="" style="edgeStyle=entityRelationEdgeStyle;startArrow=none;endArrow=none;segment=10;curved=1;sourcePerimeterSpacing=0;targetPerimeterSpacing=0;rounded=0;entryX=1;entryY=0.75;entryDx=0;entryDy=0;exitX=0.019;exitY=0.139;exitDx=0;exitDy=0;exitPerimeter=0;" parent="1" target="fwZu2a24P-UmbW1dsMMa-37" edge="1">
                    <mxGeometry relative="1" as="geometry">
                        <mxPoint x="355.11249999999995" y="296.67999999999995" as="sourcePoint"/>
                    </mxGeometry>
                </mxCell>
                <mxCell id="qGeR4voJV_wiFB7z28Xq-2" value="&lt;font style=&quot;font-size: 35px;&quot;&gt;Mobile View layout&lt;/font&gt;" style="text;html=1;align=center;verticalAlign=middle;whiteSpace=wrap;rounded=0;" parent="1" vertex="1">
                    <mxGeometry x="235" y="40" width="370" height="30" as="geometry"/>
                </mxCell>
                <mxCell id="SwCT28vCVkFz7HivEAOp-1" value="" style="verticalLabelPosition=bottom;shadow=0;dashed=0;align=center;html=1;verticalAlign=top;strokeWidth=1;shape=mxgraph.mockup.graphics.simpleIcon;strokeColor=#999999;" parent="1" vertex="1">
                    <mxGeometry x="400" y="280" width="41.75" height="35" as="geometry"/>
                </mxCell>
                <mxCell id="SwCT28vCVkFz7HivEAOp-2" value="" style="verticalLabelPosition=bottom;shadow=0;dashed=0;align=center;html=1;verticalAlign=top;strokeWidth=1;shape=mxgraph.mockup.graphics.simpleIcon;strokeColor=#999999;" parent="1" vertex="1">
                    <mxGeometry x="398.25" y="360" width="41.75" height="35" as="geometry"/>
                </mxCell>
                <mxCell id="SwCT28vCVkFz7HivEAOp-3" value="" style="verticalLabelPosition=bottom;shadow=0;dashed=0;align=center;html=1;verticalAlign=top;strokeWidth=1;shape=mxgraph.mockup.graphics.simpleIcon;strokeColor=#999999;" parent="1" vertex="1">
                    <mxGeometry x="398.25" y="320" width="41.75" height="35" as="geometry"/>
                </mxCell>
            </root>
        </mxGraphModel>
    </diagram>
</mxfile>